<?xml version="1.0" encoding="utf-8"?>
<!-- Generator: Adobe Illustrator 19.0.0, SVG Export Plug-In . SVG Version: 6.00 Build 0)  -->
<svg version="1.1" id="Layer_1" xmlns="http://www.w3.org/2000/svg" xmlns:xlink="http://www.w3.org/1999/xlink" x="0px" y="0px"
	 viewBox="0 0 64 64" enable-background="new 0 0 64 64" xml:space="preserve">
<g>
	<path fill="#FEFEFE" d="M0.1,32c0-10.6,0-21.1,0-31.7c0-0.2,0.1-0.3,0.3-0.3c21.1,0,42.3,0,63.4,0c0.2,0,0.3,0.1,0.3,0.3
		c0,21.1,0,42.3,0,63.4c0,0.2-0.1,0.3-0.3,0.3c-21.1,0-42.3,0-63.4,0c-0.2,0-0.3-0.1-0.3-0.3C0.1,53.2,0.1,42.6,0.1,32z"/>
	<path fill="#E7C042" d="M32.2,0.3c17.6,0,31.8,14.2,31.8,31.8c0,17.6-14.4,32-32.3,31.7C14.4,63.6,0.2,49.5,0.4,31.8
		C0.6,14.4,14.7,0.3,32.2,0.3z"/>
	<path fill="#E9E9E9" d="M4.4,32.1c0-15.4,12.5-28,28.2-27.7c15,0.2,27.3,12.4,27.3,27.8c0,15.3-12.5,27.9-28.2,27.7
		C16.7,59.6,4.5,47.4,4.4,32.1z"/>
	<path fill="#EFB80B" d="M57.7,32c0,14.1-11.5,25.7-25.9,25.5c-14-0.2-25.5-11.7-25.1-26.2C7,17.5,18.5,6.2,32.7,6.5
		C46.6,6.7,57.8,18.1,57.7,32z"/>
	<path fill="#FEFEFE" d="M28.9,37.3c0-1,0-2,0-3c0-0.3-0.1-0.4-0.3-0.5c-1.7-1-3.4-2-5.1-3c-0.2-0.1-0.3-0.3-0.3-0.6
		c0-1.1,0-2.2,0-3.3c0-0.2,0.1-0.3,0.2-0.4c1-0.6,1.9-1.1,2.9-1.7c0.2-0.1,0.3-0.1,0.5,0c1.7,1,3.5,2.1,5.2,3.1
		c0.2,0.1,0.3,0.1,0.5,0c1.7-1,3.5-2.1,5.2-3.1c0.2-0.1,0.3-0.1,0.5,0c1,0.6,1.9,1.1,2.9,1.7c0.2,0.1,0.2,0.2,0.2,0.4
		c0,1.1,0,2.3,0,3.4c0,0.2-0.1,0.4-0.3,0.5c-1.7,1-3.4,2-5.2,3c-0.2,0.1-0.3,0.3-0.3,0.5c0,2,0,4.1,0,6.1c0,0.2-0.1,0.3-0.2,0.4
		c-1,0.6-1.9,1.1-2.9,1.7c-0.2,0.1-0.3,0.1-0.5,0c-1-0.6-1.9-1.1-2.9-1.7c-0.2-0.1-0.2-0.2-0.2-0.4C28.9,39.4,28.9,38.4,28.9,37.3z"
		/>
	<path fill="#FEFEFE" d="M37.9,46.1c0-1.2,0-2.3,0-3.4c0-0.4,0.1-0.6,0.5-0.8c1.7-1,3.3-2,5-2.9c0.2-0.1,0.3-0.2,0.3-0.5
		c0-2,0-4.1,0-6.1c0-0.2,0.1-0.4,0.3-0.5c0.9-0.5,1.9-1.1,2.8-1.6c0.1,0,0.2-0.1,0.3-0.1c0.1,0.1,0,0.2,0,0.3c0,3.4,0,6.8,0,10.1
		c0,0.2,0,0.3-0.2,0.4c-2.9,1.7-5.8,3.4-8.7,5.1C38.1,46,38,46,37.9,46.1z"/>
	<path fill="#FEFEFE" d="M23.1,19.9c1.3-0.8,2.5-1.5,3.7-2.2c1.7-1,3.4-2,5.1-3c0.1-0.1,0.2-0.1,0.4,0c2.9,1.7,5.8,3.4,8.7,5.1
		c0.1,0,0.1,0.1,0.2,0.1c-1,0.6-2,1.2-3,1.8c-0.3,0.2-0.5,0.2-0.7,0c-1.7-1-3.4-2-5-3c-0.3-0.2-0.5-0.1-0.7,0c-1.7,1-3.4,2-5.1,3
		c-0.2,0.1-0.3,0.1-0.5,0C25.2,21.1,24.2,20.5,23.1,19.9z"/>
	<path fill="#FEFEFE" d="M17.5,30c0.7,0.4,1.3,0.8,2,1.2c0.3,0.2,0.7,0.4,1,0.6c0.2,0.1,0.2,0.2,0.2,0.4c0,2,0,4.1,0,6.1
		c0,0.3,0.1,0.4,0.3,0.5c1.7,1,3.5,2,5.2,3c0.1,0.1,0.3,0.1,0.3,0.3c0,1.2,0,2.4,0,3.6c0,0,0,0.1,0,0.1c-0.2-0.1-0.4-0.2-0.5-0.3
		c-2.8-1.6-5.5-3.2-8.3-4.9c-0.2-0.1-0.2-0.2-0.2-0.4c0-3.4,0-6.8,0-10.3C17.4,30.2,17.4,30.1,17.5,30z"/>
	<path fill="#FEFEFE" d="M43.7,29.1c0-1.2,0-2.4,0-3.5c0-0.2-0.1-0.4-0.3-0.5c-0.9-0.5-1.9-1.1-2.8-1.6c-0.3-0.1-0.2-0.2,0-0.4
		c1-0.5,1.9-1.1,2.8-1.7c0.2-0.1,0.3-0.1,0.5,0c1,0.6,1.9,1.2,2.9,1.7c0.2,0.1,0.2,0.2,0.2,0.4c0,1.2,0,2.3,0,3.5
		c0,0.1,0,0.3-0.1,0.3c-1,0.6-2.1,1.2-3.1,1.8C43.8,29.1,43.7,29.1,43.7,29.1z"/>
	<path fill="#FEFEFE" d="M35.6,43.5c0,1.3,0,2.6,0,3.8c0,0.2-0.1,0.2-0.2,0.3c-1,0.6-2,1.2-3,1.8c-0.1,0.1-0.3,0.1-0.4,0
		c-1-0.6-2-1.2-2.9-1.7c-0.1-0.1-0.2-0.1-0.2-0.3c0-1.2,0-2.5,0-3.7c0.1,0,0.2,0.1,0.3,0.1c0.9,0.5,1.9,1.1,2.8,1.6
		c0.2,0.1,0.3,0.1,0.5,0C33.5,44.7,34.5,44.1,35.6,43.5z"/>
	<path fill="#FEFEFE" d="M24.1,23.3c-1,0.6-2,1.2-3.1,1.8c-0.2,0.1-0.3,0.2-0.3,0.5c0,1.2,0,2.4,0,3.6c-0.2,0-0.3-0.1-0.4-0.2
		c-0.9-0.5-1.8-1.1-2.7-1.6c-0.2-0.1-0.2-0.2-0.2-0.4c0-1.1,0-2.3,0-3.4c0-0.2,0.1-0.3,0.2-0.4c1-0.6,1.9-1.1,2.9-1.7
		c0.1-0.1,0.2-0.1,0.4,0C21.9,22,23,22.6,24.1,23.3C24,23.2,24,23.2,24.1,23.3z"/>
	<path fill="#FEFEFE" d="M41.3,33.4c0,1-0.1,2,0,3c0.1,0.7-0.2,1.2-0.8,1.5c-0.8,0.4-1.5,0.9-2.2,1.3c-0.2,0.1-0.3,0.2-0.3-0.1
		c0-1.1,0-2.3,0-3.4c0-0.1,0-0.3,0.1-0.3C39.1,34.7,40.2,34,41.3,33.4z"/>
	<path fill="#FEFEFE" d="M28.8,23.3c1.1-0.7,2.2-1.3,3.2-1.9c0.1,0,0.2-0.1,0.2,0c1.1,0.6,2.1,1.3,3.3,1.9c-0.3,0.2-0.6,0.4-0.9,0.5
		c-0.8,0.4-1.5,0.9-2.3,1.3c-0.1,0.1-0.2,0.1-0.3,0C31,24.5,30,23.9,28.8,23.3z"/>
	<path fill="#FEFEFE" d="M23.1,33.4c1.1,0.7,2.2,1.3,3.2,1.9c0.1,0.1,0.1,0.1,0.1,0.2c0,1.2,0,2.5,0,3.7c0,0,0,0,0,0.1
		c-0.3-0.2-0.6-0.4-1-0.6c-0.7-0.4-1.4-0.8-2.1-1.2c-0.1-0.1-0.2-0.1-0.2-0.3C23.1,35.9,23.1,34.7,23.1,33.4z"/>
</g>
</svg>
