<?xml version="1.0" encoding="utf-8"?>
<!-- Generator: Adobe Illustrator 19.0.0, SVG Export Plug-In . SVG Version: 6.00 Build 0)  -->
<svg version="1.1" id="Layer_1" xmlns="http://www.w3.org/2000/svg" xmlns:xlink="http://www.w3.org/1999/xlink" x="0px" y="0px"
	 viewBox="0 0 64 64" enable-background="new 0 0 64 64" xml:space="preserve">
<g>
	<path fill="#FEFEFE" d="M32,64.1c-10.6,0-21.1,0-31.7,0c-0.2,0-0.3-0.1-0.3-0.3c0-21.1,0-42.3,0-63.4c0-0.2,0.1-0.3,0.3-0.3
		c21.1,0,42.3,0,63.4,0c0.2,0,0.3,0.1,0.3,0.3c0,21.1,0,42.3,0,63.4c0,0.2-0.1,0.3-0.3,0.3C53.2,64.1,42.6,64.1,32,64.1z"/>
	<path fill="#E7C042" d="M32.2,0.3c17.2-0.1,31.7,13.8,31.7,31.8c0,17.7-14.4,32-32.2,31.7C14.5,63.6,0.3,49.6,0.4,31.9
		C0.5,14.1,15,0.2,32.2,0.3z"/>
	<path fill="#E9E9E9" d="M32.1,59.8C16.9,59.9,4.3,47.4,4.4,31.9C4.4,16.7,17,4,32.7,4.3c14.9,0.3,27.2,12.5,27.2,27.8
		C59.8,47.5,47.3,59.9,32.1,59.8z"/>
	<path fill="#F6921A" d="M32,57.6C17.7,57.6,6.3,46.1,6.4,32c0-14.7,12-25.8,26-25.6C46.4,6.6,57.6,17.9,57.6,32
		C57.5,46.7,45.7,57.6,32,57.6z"/>
	<path fill="#FEFEFE" d="M39.7,32.5c0.6,0.4,1.2,0.7,1.6,1.2c1.3,1.2,1.6,2.7,1.2,4.4c-0.3,1.5-0.8,2.8-2,3.9c-1,1-2.3,1.4-3.7,1.5
		c-1.4,0.1-2.8,0-4.2-0.3c-0.3-0.1-0.4,0-0.5,0.3c-0.3,1.3-0.7,2.6-1,4c-0.1,0.3-0.2,0.3-0.4,0.2c-0.7-0.2-1.5-0.4-2.2-0.5
		c-0.3-0.1-0.3-0.2-0.2-0.4c0.3-1.3,0.7-2.6,1-4c0.1-0.2,0-0.3-0.2-0.4c-0.5-0.1-1.1-0.3-1.6-0.4c-0.2-0.1-0.3,0-0.4,0.2
		c-0.3,1.3-0.7,2.7-1,4c-0.1,0.2-0.1,0.3-0.4,0.2c-0.7-0.2-1.5-0.4-2.2-0.6c-0.2-0.1-0.3-0.1-0.2-0.4c0.3-1.3,0.7-2.7,1-4
		c0.1-0.3,0-0.4-0.3-0.5c-1.6-0.4-3.3-0.8-4.9-1.2c-0.3-0.1-0.4-0.1-0.2-0.4c0.4-0.9,0.8-1.8,1.2-2.7c0.1-0.2,0.2-0.2,0.4-0.2
		c0.6,0.2,1.1,0.3,1.7,0.4c0.8,0.2,1.2-0.1,1.4-0.9c0.7-2.9,1.4-5.8,2.1-8.7c0.3-1.2,0.6-2.3,0.9-3.5c0.2-0.9-0.2-1.6-1.1-1.8
		c-0.6-0.2-1.3-0.3-2-0.5c-0.2,0-0.3-0.1-0.2-0.3c0.2-0.8,0.4-1.7,0.6-2.5c0-0.2,0.1-0.2,0.3-0.2c1.7,0.4,3.3,0.8,5,1.3
		c0.3,0.1,0.4,0,0.5-0.3c0.3-1.3,0.6-2.6,0.9-3.9c0.1-0.3,0.1-0.3,0.4-0.3c0.7,0.2,1.5,0.4,2.2,0.6c0.2,0.1,0.3,0.1,0.2,0.4
		c-0.3,1.3-0.7,2.6-1,3.9c-0.1,0.2,0,0.3,0.2,0.4c0.6,0.1,1.1,0.3,1.7,0.4c0.2,0,0.2,0,0.3-0.2c0.3-1.3,0.7-2.6,1-3.9
		c0.1-0.3,0.2-0.3,0.4-0.2c0.7,0.2,1.5,0.4,2.2,0.5c0.2,0.1,0.3,0.1,0.2,0.4c-0.3,1.3-0.7,2.7-1,4c-0.1,0.2,0,0.3,0.2,0.4
		c1.2,0.4,2.4,1,3.4,1.8c2.3,1.8,2.6,5.2,0.6,7.4C41.4,31.9,40.6,32.2,39.7,32.5z"/>
	<path fill="#F6921A" d="M33.3,39.4c-1.5,0-3-0.4-4.5-0.8c-0.6-0.2-0.6-0.2-0.5-0.8c0.4-1.8,0.9-3.5,1.3-5.3
		c0.1-0.3,0.1-0.3,0.4-0.2c1.4,0.3,2.7,0.6,4,1.2c0.8,0.3,1.6,0.8,2.2,1.5c1.3,1.5,0.6,3.7-1.3,4.2C34.4,39.4,33.9,39.4,33.3,39.4z"
		/>
	<path fill="#F6921A" d="M34.6,30.2c-1.3,0-2.6-0.4-3.9-0.7c-0.2,0-0.2-0.1-0.2-0.3c0.4-1.7,0.9-3.4,1.3-5.1c0-0.2,0.1-0.2,0.3-0.2
		c1.3,0.3,2.5,0.6,3.7,1.1c0.6,0.3,1.1,0.6,1.5,1.2c1,1.2,0.5,3.6-1.6,3.9C35.3,30.2,34.9,30.2,34.6,30.2z"/>
</g>
</svg>
