<?xml version="1.0" encoding="utf-8"?>
<!-- Generator: Adobe Illustrator 19.0.0, SVG Export Plug-In . SVG Version: 6.00 Build 0)  -->
<svg version="1.1" id="Layer_1" xmlns="http://www.w3.org/2000/svg" xmlns:xlink="http://www.w3.org/1999/xlink" x="0px" y="0px"
	 viewBox="0 0 960 960" style="enable-background:new 0 0 960 960;" xml:space="preserve">
<style type="text/css">
	.st0{fill:#EAEAEA;}
	.st1{fill:url(#XMLID_54_);}
	.st2{fill:#FFFFFF;}
	.st3{fill:#1E1E1E;}
	.st4{fill:#E6007A;}
</style>
<g id="Background_2_">
	<circle id="XMLID_65_" class="st0" cx="480" cy="480" r="420"/>
	<linearGradient id="XMLID_54_" gradientUnits="userSpaceOnUse" x1="3.5689" y1="480" x2="960" y2="480">
		<stop  offset="8.522196e-008" style="stop-color:#E8C142"/>
		<stop  offset="1" style="stop-color:#E8C142"/>
	</linearGradient>
	<path id="XMLID_62_" class="st1" d="M479.9,63.8c229.9,0,416.3,186.4,416.3,416.3S709.8,896.4,479.9,896.4S63.6,710,63.6,480.1
		S250,63.8,479.9,63.8 M479.9,3.8c-64.3,0-126.7,12.6-185.4,37.5c-56.7,24-107.7,58.3-151.4,102.1C99.4,187,65,238,41,294.7
		C16.2,353.4,3.6,415.8,3.6,480.1S16.2,606.8,41,665.5c24,56.7,58.3,107.7,102.1,151.4c43.7,43.7,94.7,78.1,151.4,102.1
		c58.8,24.9,121.1,37.5,185.4,37.5s126.7-12.6,185.4-37.5C722,895,773,860.6,816.7,816.9c43.7-43.7,78.1-94.7,102.1-151.4
		c24.9-58.8,37.5-121.1,37.5-185.4s-12.6-126.7-37.5-185.4c-24-56.7-58.3-107.7-102.1-151.4C773,99.6,722,65.2,665.3,41.2
		C606.5,16.4,544.2,3.8,479.9,3.8L479.9,3.8z"/>
</g>
<g id="XMLID_104_">
	<circle id="XMLID_72_" class="st2" cx="480" cy="480" r="384"/>
</g>
<path id="XMLID_223_" class="st3" d="M483.2,216.6c-110,0.4-199.1,89.5-199.5,199.5c0,22,3.6,43.9,10.5,64.8
	c5.2,14.2,20.6,21.9,35.1,17.5c14-5.4,21.4-20.7,17-35c-5.9-16.3-8.5-33.6-7.8-50.9c2.4-79.5,68.7-141.9,148.2-139.5
	s141.9,68.7,139.5,148.2c-2.3,74.4-60.8,134.8-135.1,139.3c0,0-28,1.7-41.9,3.4c-5.1,0.7-10.2,1.7-15.3,3c-0.7,0.7-1.9,0.7-2.6,0
	l0,0c-0.5-0.7-0.5-1.6,0-2.2l4.3-23.7l26.3-118.3c3.2-14.8-6.2-29.3-21-32.5c-14.8-3.2-29.3,6.2-32.5,21c0,0-62.6,289.6-62.6,292.2
	c-3.6,14.1,4.9,28.4,19,32c0.1,0,0.3,0.1,0.5,0.1h1.5c14.1,3.6,28.4-4.8,32-18.9c0.1-0.2,0.1-0.5,0.2-0.7c0-0.4,0-0.9,0-1.3
	c0.8-3.4,8.7-41.9,8.7-41.9c6-29.1,29.4-51.4,58.8-55.9c6-0.9,31.4-2.6,31.4-2.6c109.6-10.9,189.6-108.6,178.6-218.2
	C666.4,296.1,583.6,219.2,483.2,216.6z"/>
<path id="XMLID_222_" class="st4" d="M495.3,676.6c-18-3.7-35.6,7.8-39.3,25.8c0,0.2-0.1,0.3-0.1,0.5c-3.9,17.9,7.4,35.5,25.3,39.4
	c0,0,0,0,0.1,0h0.9c17.5,4.2,35.1-6.5,39.3-24c0-0.1,0.1-0.3,0.1-0.4v-1.8C524.7,698,513.1,680.7,495.3,676.6z"/>
</svg>
