<?xml version="1.0" encoding="utf-8"?>
<!-- Generator: Adobe Illustrator 19.0.0, SVG Export Plug-In . SVG Version: 6.00 Build 0)  -->
<svg version="1.1" id="Layer_1" xmlns="http://www.w3.org/2000/svg" xmlns:xlink="http://www.w3.org/1999/xlink" x="0px" y="0px"
	 viewBox="0 0 64 64" enable-background="new 0 0 64 64" xml:space="preserve">
<g>
	<path fill="#FEFEFE" d="M64.1,32.1c0,10.6,0,21.1,0,31.7c0,0.2-0.1,0.3-0.3,0.3c-21.1,0-42.3,0-63.4,0c-0.2,0-0.3-0.1-0.3-0.3
		c0-21.1,0-42.3,0-63.4c0-0.2,0.1-0.3,0.3-0.3c21.1,0,42.3,0,63.4,0c0.2,0,0.3,0.1,0.3,0.3C64.1,10.9,64.1,21.5,64.1,32.1z"/>
	<path fill="#E7C042" d="M63.9,32.1c0,17.5-14.3,32.1-32.4,31.8C14.4,63.6,0.2,49.5,0.4,31.7C0.6,14.2,15,0,32.8,0.3
		C49.9,0.6,63.9,14.6,63.9,32.1z"/>
	<path fill="#E9E9E9" d="M59.9,32.1c0,15.3-12.5,28-28.2,27.7c-15-0.2-27.4-12.4-27.3-28C4.6,16.5,17.1,4.1,32.7,4.4
		C47.7,4.6,59.9,16.8,59.9,32.1z"/>
	<path fill="#FEFEFE" d="M32.1,57.6C18,57.7,6.3,46.2,6.4,31.7c0.1-7,2.7-13.1,7.7-18c5.1-5,11.3-7.4,18.4-7.3
		c13.7,0.2,25.3,11.4,25.2,26c-0.1,6.9-2.6,12.9-7.5,17.7C45.2,55.1,39.1,57.5,32.1,57.6z"/>
	<path fill="#29AAE1" d="M13.9,29.5c0.8-2.8,2.4-4.9,5-6.1c2.7-1.3,5.3-1.1,7.8,0.5c1.8,1.2,3.3,2.6,4.7,4.2
		c0.3,0.3,0.5,0.6,0.8,0.9c0.3,0.1,0.5,0.5,0.7,0.7c0.6,0.7,1.2,1.4,1.8,2c0.7,0.8,1.4,1.6,2.1,2.4c1,1.1,2.1,1.9,3.3,2.6
		c0.5,0.3,1.1,0.6,1.6,0.8c2,0.7,3.9,0.6,5.8-0.2c1.1-0.5,1.9-1.3,2.5-2.3c0.1-0.2,0.2-0.3,0.3-0.5c0,0,0.1,0,0.1,0
		c-0.4,1.7-1.3,3.1-2.6,4.3c-1.8,1.6-3.9,2.5-6.3,2.4c-1.3,0-2.5-0.6-3.6-1.2c-1.7-1.1-3.2-2.5-4.6-3.9c-0.4-0.4-0.8-0.8-1.1-1.3
		c-0.4-0.2-0.5-0.5-0.8-0.8c-0.6-0.7-1.2-1.3-1.7-2c-0.9-1.1-1.8-2.1-2.8-3c-1.2-1.1-2.5-2-4-2.6c-0.4-0.2-0.8-0.3-1.2-0.4
		c-0.2-0.1-0.5-0.1-0.7-0.1c-0.3-0.1-0.6,0-0.8,0c-0.4,0-0.7,0.1-1.1,0.1c-2.2,0.3-3.8,1.4-4.8,3.3C14.1,29.4,14.1,29.5,13.9,29.5z"
		/>
	<path fill="#F05A24" d="M34.7,31.8c-0.8-0.9-1.7-1.9-2.5-2.8c1.5-1.9,3.1-3.6,5.2-4.9c1.4-0.9,2.9-1.6,4.6-1.5
		c0.7,0,1.4,0.1,2.1,0.3c0,0.2-0.2,0.4-0.3,0.5C43,24.3,42,25.1,41.2,26c-0.2,0.2-0.4,0.4-0.5,0.6c-0.1,0.2-0.4,0.2-0.5,0.3
		c-0.9,0.5-1.8,1.2-2.5,1.9c-0.9,0.9-1.8,1.8-2.6,2.8C34.9,31.7,34.8,31.8,34.7,31.8z"/>
	<path fill="#EC1E79" d="M29.8,32c0.8,0.9,1.6,1.9,2.5,2.8c-1.8,2.3-3.8,4.3-6.5,5.7c-1.7,0.8-3.4,1-5.2,0.5
		c-0.1-0.2,0.1-0.3,0.2-0.4c0.9-0.9,1.9-1.9,2.8-2.8c0.3-0.2,0.5-0.5,0.7-0.8c0.4-0.3,0.9-0.6,1.4-0.9c1.1-0.9,2.1-1.8,3-2.9
		c0.3-0.3,0.6-0.7,0.9-1C29.7,32.1,29.7,32,29.8,32z"/>
	<path fill="#FAAF3B" d="M50.5,34.5c-1.2,2.2-3,3.3-5.4,3.5c-1.1,0.1-2.2,0-3.3-0.5c0.1-0.1,0.2-0.1,0.3-0.1
		c1.3-0.1,2.5-0.6,3.4-1.5c0.9-0.9,1.5-2,1.7-3.2c0.1-0.5,0.1-1,0-1.6c0-0.1,0-0.2,0-0.3c0.1-0.2,0.3-0.3,0.5-0.5
		c0.7-0.7,1.5-1.5,2.2-2.2c0.1-0.1,0.1-0.2,0.3-0.2c0.4,0.8,0.6,1.7,0.8,2.7c0.2,1.2,0.1,2.3-0.2,3.5C50.6,34.3,50.6,34.4,50.5,34.5
		z"/>
	<path fill="#522785" d="M13.9,29.5c0.3-0.5,0.6-1,0.9-1.5c1.1-1.2,2.4-2,4.1-2.2c0.1,0.2-0.1,0.3-0.2,0.4c-0.7,0.7-1.4,1.3-2,2
		c-0.8,0.8-1.6,1.6-2.5,2.5c-0.1,0.1-0.3,0.3-0.5,0.3C13.6,30.5,13.8,30,13.9,29.5z"/>
	<path fill="#662683" d="M20.9,25.8c0.3,0,0.5,0,0.7,0.1c-0.2,0.2-0.4,0.4-0.6,0.7c-0.1,0.1-0.3,0.2-0.4,0.2
		c-1.1,0.5-1.9,1.2-2.5,2.2c-0.1,0.1-0.1,0.3-0.3,0.3c-0.1,0.1-0.2,0.2-0.3,0.3c-1.1,1.2-2.3,2.2-3.5,3.4c-0.1,0.1-0.1,0.1-0.2,0.2
		c-0.1,0.1-0.2,0-0.3-0.1c0-0.3-0.1-0.7-0.1-1c0.2,0,0.1,0.2,0.2,0.3c0.1,0,0.1-0.1,0.2-0.1c1.7-1.7,3.4-3.3,5.1-5
		c0.4-0.4,0.8-0.7,1.1-1.1C20.4,25.8,20.6,25.7,20.9,25.8z"/>
	<path fill="#5F2684" d="M20.9,25.8c-0.3,0-0.5,0.1-0.7,0.3c-1.2,1.2-2.4,2.5-3.7,3.7c-0.9,0.8-1.7,1.7-2.6,2.6
		c-0.1,0.1-0.1,0.2-0.3,0.2c-0.1,0,0-0.2-0.1-0.3c0,0,0-0.1,0-0.1c0-0.1,0-0.1,0-0.2c0.7-0.7,1.4-1.5,2.2-2.2c0.4-0.3,0.7-0.7,1-1
		c0.9-0.9,1.8-1.8,2.7-2.7c0.2-0.2,0.3-0.3,0.6-0.3C20.4,25.7,20.7,25.7,20.9,25.8z"/>
	<path fill="#592784" d="M20.1,25.8c-0.2,0-0.4,0.2-0.5,0.3c-1.2,1.2-2.3,2.4-3.6,3.5c-0.7,0.7-1.4,1.4-2.1,2.1
		c-0.1,0.1-0.1,0.2-0.2,0.2c0,0,0-0.1,0-0.1c0.1-0.2,0-0.4,0-0.6c0,0,0,0,0-0.1c0.2-0.1,0.4-0.3,0.6-0.5c0.8-0.8,1.6-1.7,2.5-2.4
		c0.7-0.6,1.3-1.3,2-1.9c0.1-0.1,0.2-0.2,0.3-0.4C19.3,25.8,19.7,25.7,20.1,25.8z"/>
	<path fill="#F16126" d="M40.6,26.6c0.1-0.2,0.2-0.3,0.3-0.5c0.9-0.9,1.8-1.7,2.7-2.6c0.2-0.2,0.4-0.4,0.5-0.6
		c0.3,0,0.5,0.1,0.7,0.2c0.1,0.2,0,0.3-0.1,0.4c-0.9,0.9-1.8,1.8-2.7,2.7c-0.1,0.2-0.4,0.1-0.5,0.2C41.2,26.4,40.9,26.6,40.6,26.6z"
		/>
	<path fill="#F89E36" d="M49.2,26.5c0.2,0.2,0.4,0.5,0.5,0.8c0,0.1-0.1,0.2-0.2,0.3c-0.7,0.7-1.5,1.5-2.2,2.2
		c-0.1,0.1-0.2,0.2-0.4,0.2c-0.2-0.2-0.3-0.5-0.4-0.9c0.8-0.8,1.6-1.7,2.5-2.5C49,26.6,49.1,26.5,49.2,26.5z"/>
	<path fill="#F9A739" d="M46.9,29.9c0.1-0.1,0.2-0.1,0.3-0.2c0.8-0.8,1.6-1.6,2.4-2.4c0,0,0.1-0.1,0.1-0.1c0.2,0.2,0.3,0.5,0.4,0.8
		c0,0.1-0.1,0.2-0.2,0.3c-0.8,0.8-1.6,1.6-2.3,2.3c-0.1,0.1-0.2,0.2-0.4,0.2C47,30.6,46.9,30.3,46.9,29.9z"/>
	<path fill="#F26828" d="M41.5,26.3c0.3,0,0.5-0.2,0.7-0.4c0.8-0.8,1.6-1.6,2.5-2.5c0.1-0.1,0.2-0.2,0.2-0.3c0.3,0,0.5,0.2,0.7,0.3
		c0.1,0.1,0,0.3-0.1,0.3c-0.8,0.8-1.7,1.7-2.5,2.5c-0.1,0.1-0.3,0.2-0.5,0.2C42.2,26.4,41.8,26.5,41.5,26.3z"/>
	<path fill="#6C2583" d="M13.7,33.1c0.1,0.1,0.1,0.2,0.2,0.1c0,0,0.1-0.1,0.1-0.1c1.2-1.2,2.4-2.3,3.6-3.5c0.1-0.1,0.2-0.2,0.3-0.2
		c0.1,0.1,0.1,0.1,0,0.2c-0.2,0.3-0.3,0.7-0.4,1.1c-1.1,1-2.1,2-3.1,3.1c-0.1,0.1-0.2,0.2-0.3,0.2c-0.1,0.1-0.2,0.1-0.3,0
		C13.8,33.6,13.7,33.3,13.7,33.1z"/>
	<path fill="#F4782C" d="M46.3,23.8c0.3,0.1,0.5,0.3,0.7,0.5c0.1,0.1,0,0.2-0.1,0.3c-0.8,0.8-1.5,1.5-2.3,2.3
		c-0.1,0.1-0.1,0.1-0.2,0.1c-0.3,0-0.5-0.2-0.7-0.3c0-0.1,0.1-0.2,0.1-0.3C44.6,25.5,45.5,24.6,46.3,23.8z"/>
	<path fill="#F36F2A" d="M46.3,23.8c0,0.2-0.1,0.2-0.2,0.3c-0.8,0.8-1.6,1.7-2.4,2.5c-0.4,0-0.7,0-1.1-0.3c0.2,0,0.3,0,0.4-0.2
		c0.8-0.8,1.6-1.6,2.4-2.4c0.1-0.1,0.2-0.2,0.2-0.3C45.9,23.5,46.1,23.7,46.3,23.8z"/>
	<path fill="#F79534" d="M49.2,26.5c-0.8,0.8-1.7,1.7-2.5,2.5c0,0-0.1,0.1-0.2,0.1c-0.3-0.1-0.4-0.4-0.5-0.7
		c0.9-0.9,1.7-1.8,2.6-2.6C48.9,26,49,26.2,49.2,26.5z"/>
	<path fill="#F58730" d="M47.6,24.7c0.3,0.1,0.4,0.4,0.6,0.5c0.1,0.1,0,0.2-0.1,0.3c-0.7,0.7-1.4,1.5-2.2,2.2
		c-0.1,0.1-0.2,0.2-0.3,0.2c-0.3-0.1-0.5-0.3-0.6-0.6C45.8,26.5,46.7,25.7,47.6,24.7C47.5,24.8,47.6,24.8,47.6,24.7z"/>
	<path fill="#E41E79" d="M24.4,37.1c-0.6,0.8-1.4,1.4-2,2.1c-0.5,0.5-1,1-1.6,1.6c-0.1,0.1-0.2,0.2-0.2,0.3
		c-0.2-0.1-0.5-0.1-0.7-0.2c0.2-0.4,0.5-0.6,0.9-0.9c0.8-0.7,1.4-1.4,2.2-2.1c0.1-0.1,0.1-0.2,0.2-0.3c0.4-0.1,0.8-0.3,1.2-0.4
		C24.3,37,24.4,37,24.4,37.1z"/>
	<path fill="#F47F2E" d="M47.6,24.7c0,0,0,0.1-0.1,0.1c-0.8,0.9-1.6,1.7-2.4,2.5c0,0-0.1,0-0.1,0c-0.3,0-0.5-0.1-0.6-0.4
		c0.8-0.7,1.5-1.5,2.3-2.3c0.1-0.1,0.2-0.2,0.3-0.4C47.3,24.4,47.4,24.5,47.6,24.7z"/>
	<path fill="#752582" d="M13.8,33.9c0.2,0.1,0.3,0,0.3-0.1c0.9-0.9,1.9-1.9,2.8-2.8c0.1-0.1,0.2-0.2,0.4-0.3c0.1,0.3,0,0.6-0.1,0.9
		c-1,1-2,2-3,2.9c-0.1,0.1-0.2,0.2-0.4,0.2C13.9,34.4,13.9,34.1,13.8,33.9z"/>
	<path fill="#F68F32" d="M45.6,27.9c0.1,0,0.2-0.1,0.2-0.1c0.8-0.8,1.5-1.5,2.3-2.3c0.1-0.1,0.1-0.1,0.1-0.2
		c0.2,0.1,0.3,0.3,0.5,0.5c0,0.1-0.1,0.2-0.1,0.2c-0.8,0.8-1.5,1.5-2.3,2.3c-0.1,0.1-0.1,0.1-0.2,0.1C45.8,28.3,45.6,28.2,45.6,27.9
		z"/>
	<path fill="#952380" d="M15.2,37.2c-0.2-0.2-0.3-0.4-0.4-0.6c0.9-0.9,1.8-1.8,2.8-2.7c0.2,0.1,0.2,0.4,0.3,0.6
		c0,0.1-0.1,0.2-0.2,0.3c-0.7,0.7-1.5,1.5-2.2,2.2C15.4,37.1,15.4,37.2,15.2,37.2z"/>
	<path fill="#872481" d="M14.6,36.1c-0.1-0.2-0.2-0.3-0.3-0.5c0-0.2,0.2-0.2,0.3-0.3c0.7-0.8,1.5-1.4,2.3-2.2
		c0.2-0.2,0.2-0.4,0.5-0.5c0.2,0.2,0.1,0.5,0.2,0.7c0,0.2-0.1,0.3-0.3,0.4c-0.8,0.8-1.6,1.5-2.3,2.3C14.8,36.1,14.7,36.2,14.6,36.1z
		"/>
	<path fill="#8D2480" d="M14.6,36.1c0.2-0.1,0.3-0.3,0.5-0.4c0.7-0.7,1.4-1.4,2.1-2.1c0.1-0.1,0.2-0.2,0.2-0.3
		c0.2,0.2,0.3,0.4,0.2,0.6c0,0.2-0.2,0.3-0.3,0.4c-0.8,0.6-1.4,1.4-2.1,2.1c-0.1,0.1-0.2,0.2-0.3,0.2C14.7,36.5,14.7,36.3,14.6,36.1
		z"/>
	<path fill="#D2207B" d="M19,40.5c-0.2-0.1-0.4-0.1-0.5-0.3c0-0.1,0.1-0.1,0.1-0.2c0.9-0.9,1.8-1.8,2.7-2.7c0.2,0,0.4,0,0.6,0.1
		c0.1,0.1,0,0.2-0.1,0.3c-0.9,0.9-1.7,1.7-2.6,2.6C19.1,40.4,19.1,40.4,19,40.5z"/>
	<path fill="#C5207C" d="M18.1,40c-0.2-0.1-0.4-0.2-0.5-0.4c0-0.1,0.1-0.2,0.2-0.3c0.7-0.6,1.3-1.3,2-1.9c0.2-0.1,0.3-0.3,0.5-0.5
		c0.2,0,0.4,0.1,0.6,0.3c0,0.2-0.1,0.3-0.2,0.4C19.7,38.4,18.9,39.2,18.1,40z"/>
	<path fill="#7F2481" d="M17.3,32.5c0,0.1,0,0.3-0.1,0.4c-0.9,0.9-1.9,1.8-2.8,2.7c-0.1-0.2-0.1-0.4-0.2-0.5
		c0.6-0.6,1.2-1.2,1.8-1.9c0.3-0.3,0.6-0.6,0.9-0.9c0.1-0.1,0.2-0.3,0.4-0.1C17.4,32.3,17.4,32.4,17.3,32.5z"/>
	<path fill="#CC207B" d="M18.1,40c0-0.2,0.2-0.3,0.4-0.5c0.8-0.7,1.6-1.5,2.3-2.3c0.2-0.1,0.4,0,0.5,0.2c0,0,0,0.1-0.1,0.1
		c-0.9,0.9-1.8,1.8-2.7,2.7C18.3,40.1,18.2,40.1,18.1,40z"/>
	<path fill="#DE1F7A" d="M23.1,37.5c0.1,0.1,0,0.2-0.1,0.3c-1,1-2,2-3,3c0,0,0,0-0.1,0c-0.1,0-0.2-0.1-0.3-0.1
		c-0.1-0.2,0.1-0.3,0.2-0.4c0.8-0.8,1.6-1.6,2.4-2.4c0.1-0.1,0.2-0.3,0.4-0.4C22.7,37.4,22.9,37.4,23.1,37.5z"/>
	<path fill="#D91F7A" d="M22.5,37.5c0,0.2-0.1,0.2-0.2,0.3c-0.8,0.8-1.7,1.7-2.5,2.5c-0.1,0.1-0.2,0.2-0.2,0.3
		c-0.2,0-0.4-0.1-0.5-0.2c0.9-0.9,1.8-1.8,2.6-2.7c0.1-0.1,0.2-0.2,0.2-0.3C22.1,37.3,22.3,37.4,22.5,37.5z"/>
	<path fill="#B9217D" d="M17.2,39.4c-0.2-0.1-0.3-0.2-0.4-0.3c0-0.2,0.2-0.3,0.3-0.4c0.7-0.8,1.5-1.5,2.2-2.3c0.2,0,0.4,0.2,0.5,0.3
		c0,0.3-0.3,0.5-0.4,0.6c-0.7,0.6-1.2,1.2-1.9,1.8C17.4,39.2,17.3,39.3,17.2,39.4z"/>
	<path fill="#9C237F" d="M15.2,37.2c0.9-0.9,1.8-1.8,2.7-2.6c0.3,0,0.2,0.3,0.3,0.4c0,0.2-0.1,0.3-0.2,0.4c-0.7,0.7-1.3,1.3-2,2
		c-0.1,0.1-0.3,0.3-0.5,0.3C15.4,37.5,15.3,37.3,15.2,37.2z"/>
	<path fill="#7A2581" d="M17.3,32.1c-0.2,0-0.2,0.1-0.3,0.2c-0.8,0.8-1.7,1.7-2.5,2.5c-0.1,0.1-0.2,0.2-0.3,0.2
		c-0.1-0.1-0.1-0.3-0.1-0.5c0.1-0.1,0.3-0.2,0.4-0.3c0.9-0.9,1.7-1.7,2.6-2.6c0.1-0.1,0.2-0.2,0.3-0.2
		C17.4,31.7,17.4,31.9,17.3,32.1z"/>
	<path fill="#A7227E" d="M16.1,38.4c-0.2-0.1-0.3-0.3-0.4-0.4c0.6-0.6,1.2-1.2,1.7-1.8c0.3-0.3,0.6-0.6,0.8-0.8
		c0.2,0,0.3,0.2,0.4,0.4c0,0.2-0.1,0.3-0.2,0.4c-0.6,0.7-1.3,1.2-2,1.9C16.4,38.2,16.3,38.3,16.1,38.4z"/>
	<path fill="#BF217C" d="M17.2,39.4c0.6-0.7,1.3-1.3,2-2c0.2-0.2,0.5-0.4,0.6-0.7c0.2,0,0.3,0,0.4,0.2c0,0.2-0.2,0.3-0.4,0.5
		c-0.8,0.6-1.4,1.4-2.1,2.1c0,0-0.1,0.1-0.2,0.1C17.4,39.5,17.3,39.5,17.2,39.4z"/>
	<path fill="#B3217D" d="M19.3,36.4c0,0.1-0.1,0.2-0.2,0.3c-0.8,0.8-1.5,1.6-2.3,2.3c-0.1-0.1-0.3-0.2-0.4-0.3
		c0-0.1,0.1-0.2,0.1-0.2c0.8-0.8,1.5-1.5,2.3-2.3c0,0,0.1-0.1,0.2-0.1C19.2,36.1,19.3,36.2,19.3,36.4z"/>
	<path fill="#AD227E" d="M19,36.1c-0.8,0.9-1.7,1.7-2.6,2.6c-0.1-0.1-0.2-0.2-0.3-0.3c0.4-0.5,0.9-1,1.4-1.4
		c0.4-0.4,0.9-0.7,1.1-1.2C18.9,35.7,19,35.9,19,36.1z"/>
	<path fill="#A1227F" d="M18.3,35.3c0,0.1-0.1,0.2-0.1,0.3c-0.8,0.8-1.5,1.5-2.3,2.3c-0.1,0.1-0.1,0.1-0.2,0.1
		c-0.1-0.1-0.2-0.2-0.3-0.3c1-0.8,1.8-1.7,2.6-2.6C18.3,35,18.4,35.1,18.3,35.3z"/>
	<path fill="#71B3BA" d="M50.5,34.5c0-0.2,0.1-0.3,0.2-0.4C50.7,34.3,50.6,34.4,50.5,34.5C50.5,34.5,50.5,34.5,50.5,34.5z"/>
	<path fill="#5F2684" d="M13.7,31.1c0,0.2,0.1,0.4,0,0.6C13.6,31.5,13.6,31.3,13.7,31.1z"/>
	<path fill="#FEFEFE" d="M18.3,35.3c0-0.1-0.1-0.2-0.2-0.3c-0.1-0.2-0.1-0.3-0.3-0.4c-0.1-0.2-0.1-0.4-0.3-0.6
		c-0.1-0.2-0.1-0.4-0.2-0.6c0-0.3-0.1-0.5-0.1-0.8c0-0.1,0-0.3,0-0.4c0-0.2,0-0.4,0-0.6c0-0.3,0.1-0.6,0.1-0.9
		c0.2-0.4,0.3-0.8,0.5-1.3c0.5-1,1.2-1.8,2.2-2.3c0.3-0.2,0.7-0.3,1-0.5c0.5-0.3,1-0.3,1.5-0.3c0.1,0,0.2,0,0.3,0.1
		c1.3,0.5,2.5,1.2,3.6,2.2c1.2,1.1,2.3,2.3,3.3,3.5c-1.3,1.6-2.7,3.2-4.4,4.4c-0.3,0.2-0.7,0.4-1,0.6c-0.4,0.2-0.9,0.3-1.3,0.5
		c-0.2,0-0.4,0-0.6,0c-0.2,0-0.4,0-0.6-0.1c-0.2,0-0.4-0.1-0.6-0.1c-0.2-0.1-0.4-0.1-0.5-0.2c-0.2-0.1-0.4-0.2-0.5-0.2
		c-0.1-0.1-0.3-0.2-0.4-0.2c-0.2-0.1-0.3-0.2-0.5-0.3c-0.1-0.1-0.2-0.2-0.3-0.3c-0.1-0.1-0.2-0.3-0.3-0.4
		C18.6,35.6,18.5,35.5,18.3,35.3z"/>
	<path fill="#FEFEFE" d="M45.6,27.9c0.2,0.2,0.3,0.4,0.5,0.5c0.2,0.2,0.3,0.4,0.5,0.7c0.1,0.3,0.3,0.6,0.4,0.9
		c0.1,0.3,0.2,0.6,0.3,0.9c0.1,0.9,0.1,1.8-0.2,2.7c-0.6,2.2-2.6,4-5.3,4c-1.1-0.3-2-0.9-2.9-1.6c-1.4-0.9-2.4-2.2-3.5-3.4
		c-0.2-0.2-0.4-0.5-0.6-0.7c1.2-1.5,2.5-3,4.1-4.2c0.6-0.4,1.2-0.8,1.8-1.1c0.3-0.1,0.6-0.2,0.9-0.2c0.4,0,0.7,0,1.1,0
		c0.4,0.1,0.7,0.2,1.1,0.3c0.2,0.1,0.5,0.2,0.7,0.3c0.2,0.1,0.4,0.3,0.6,0.4C45.2,27.5,45.4,27.7,45.6,27.9z"/>
	<path fill="#722985" d="M22.9,26.3c-0.6,0-1.2,0.1-1.8,0.2c0.1-0.3,0.3-0.5,0.6-0.6C22.1,26,22.5,26.1,22.9,26.3z"/>
</g>
</svg>
