<?xml version="1.0" encoding="utf-8"?>
<!-- Generator: Adobe Illustrator 19.0.0, SVG Export Plug-In . SVG Version: 6.00 Build 0)  -->
<svg version="1.1" id="Layer_1" xmlns="http://www.w3.org/2000/svg" xmlns:xlink="http://www.w3.org/1999/xlink" x="0px" y="0px"
	 viewBox="0 0 64 64" enable-background="new 0 0 64 64" xml:space="preserve">
<g>
	<path fill="#FEFEFE" d="M0.1,32.1c0-10.6,0-21.1,0-31.7c0-0.2,0.1-0.3,0.3-0.3c21.1,0,42.3,0,63.4,0c0.2,0,0.3,0.1,0.3,0.3
		c0,21.1,0,42.3,0,63.4c0,0.2-0.1,0.3-0.3,0.3c-21.1,0-42.3,0-63.4,0c-0.2,0-0.3-0.1-0.3-0.3C0.1,53.2,0.1,42.6,0.1,32.1z"/>
	<path fill="#E7C042" d="M0.3,32.1C0.3,14.6,14.7,0,32.7,0.3C49.6,0.6,64,14.5,63.8,32.5c-0.2,17.3-14.3,31.6-32.2,31.4
		C14.1,63.6,0.2,49.3,0.3,32.1z"/>
	<path fill="#E9E9E9" d="M32.1,59.8C16.9,59.9,4,47.3,4.3,31.5C4.6,16.6,16.9,4.1,32.6,4.3C47.6,4.6,60,17,59.8,32.5
		C59.6,47.5,47.3,59.8,32.1,59.8z"/>
	<path fill="#2A59D9" d="M31.9,6.4c14.1,0,25.9,11.6,25.6,26.2c-0.3,13.7-11.6,25.2-25.9,25C17.6,57.5,6.3,46,6.3,32
		C6.4,17.8,17.8,6.4,31.9,6.4z"/>
	<path fill="#FEFEFE" d="M47.1,32.4c0,2.8,0,5.6,0,8.4c0,0.2-0.1,0.4-0.3,0.5c-4.8,2.8-9.7,5.6-14.5,8.4c-0.2,0.1-0.4,0.1-0.6,0
		c-4.8-2.8-9.7-5.5-14.5-8.3c-0.3-0.2-0.4-0.4-0.4-0.7c0-5.5,0-11.1,0-16.6c0-0.2,0.1-0.4,0.3-0.5c4.8-2.8,9.7-5.6,14.5-8.4
		c0.2-0.1,0.4-0.1,0.6,0c4.9,2.8,9.7,5.6,14.6,8.4c0.2,0.1,0.2,0.2,0.2,0.4C47.1,26.8,47.1,29.6,47.1,32.4z"/>
	<path fill="#2A5AD9" d="M23.3,32.4c0-1.6,0-3.1,0-4.7c0-0.2,0.1-0.3,0.2-0.4c2.7-1.6,5.5-3.2,8.2-4.7c0.2-0.1,0.3-0.1,0.5,0
		c2.7,1.6,5.5,3.2,8.2,4.7c0.2,0.1,0.3,0.2,0.3,0.4c0,3.1,0,6.3,0,9.4c0,0.2-0.1,0.3-0.2,0.4c-2.7,1.6-5.5,3.1-8.2,4.7
		c-0.2,0.1-0.3,0.1-0.5,0c-2.7-1.6-5.4-3.1-8-4.6c-0.3-0.2-0.4-0.3-0.4-0.7C23.3,35.4,23.3,33.9,23.3,32.4z"/>
</g>
</svg>
