<?xml version="1.0" encoding="utf-8"?>
<!-- Generator: Adobe Illustrator 19.0.0, SVG Export Plug-In . SVG Version: 6.00 Build 0)  -->
<svg version="1.1" id="Layer_1" xmlns="http://www.w3.org/2000/svg" xmlns:xlink="http://www.w3.org/1999/xlink" x="0px" y="0px"
	 viewBox="0 0 64 64" enable-background="new 0 0 64 64" xml:space="preserve">
<g>
	<path fill="#FEFEFE" d="M64.1,32.1c0,10.6,0,21.1,0,31.7c0,0.2-0.1,0.3-0.3,0.3c-21.1,0-42.3,0-63.4,0c-0.2,0-0.3-0.1-0.3-0.3
		c0-21.1,0-42.3,0-63.4c0-0.2,0.1-0.3,0.3-0.3c21.1,0,42.3,0,63.4,0c0.2,0,0.3,0.1,0.3,0.3C64.1,10.9,64.1,21.5,64.1,32.1z"/>
	<path fill="#E7C042" d="M63.9,32.1c0.1,17.4-14.3,32.1-32.4,31.7c-17-0.3-31.3-14.3-31.1-32.2C0.6,14.4,14.7,0.1,32.6,0.4
		C50,0.6,63.9,14.8,63.9,32.1z"/>
	<path fill="#E9E9E9" d="M4.4,32.1c-0.1-15,12.2-27.9,28-27.7C47.7,4.5,60.1,17,59.9,32.6c-0.2,14.9-12.5,27.6-28.3,27.2
		C16.5,59.6,4.3,47.2,4.4,32.1z"/>
	<path fill="#35397E" d="M8.3,23.3c0.5-1.3,1.1-2.6,1.8-3.8c1.1-1.9,2.4-3.7,4-5.2c0.1-0.1,0.1-0.1,0.2-0.2c0.1-0.1,0.3,0,0.4,0
		c11.6,0,23.2,0,34.7,0c0.1,0,0.3,0,0.4,0c1.2,1.1,2.2,2.3,3.1,3.6c1.2,1.7,2.1,3.5,2.9,5.4c0,0.1,0,0.1,0.1,0.2
		c-0.1,0.1-0.2,0-0.4,0c-5.8,0-11.6,0-17.5,0c-0.3,0-0.5,0-0.8,0.1c-0.2,0-0.3,0-0.4-0.1c-0.9-0.6-1.8-1-2.9-1.3
		c-0.3-0.1-0.4-0.2-0.4-0.5c0-0.4,0-0.8,0-1.3c0-0.6-0.4-1-1-1c-0.4,0-0.8,0-1.2,0c-0.5,0-0.9,0.4-1,1c0,0.4,0,0.9,0,1.3
		c0,0.3-0.1,0.4-0.4,0.5c-1.1,0.2-2.2,0.7-3.1,1.4c-0.1,0.1-0.2,0.1-0.3,0.1c-0.3-0.1-0.5-0.1-0.8-0.1c-5.7,0-11.3,0-17,0
		C8.8,23.4,8.5,23.4,8.3,23.3z"/>
	<path fill="#353D7E" d="M49.9,14c-0.1,0.1-0.3,0.1-0.4,0.1c-11.6,0-23.2,0-34.8,0c-0.1,0-0.3,0-0.4-0.1c1-1,2-1.9,3.2-2.7
		c3.5-2.5,7.4-4,11.6-4.4c7.3-0.8,13.9,1.2,19.5,6C49.1,13.2,49.5,13.6,49.9,14z"/>
	<path fill="#35287E" d="M54.5,44.1c-0.5,0.9-1,1.8-1.6,2.6c-0.2,0.2-0.3,0.5-0.5,0.7c-0.1,0-0.2,0-0.3,0c-13.1,0-26.2,0-39.3,0
		c-0.3,0-0.6,0-1,0c-0.7-0.9-1.4-1.9-1.9-2.9c-0.4-0.7-0.8-1.3-1-2.1c0-0.2,0.1-0.2,0.2-0.2c0.2,0,0.3,0,0.5,0c6.1,0,12.3,0,18.4,0
		c0.2,0,0.4,0,0.6,0c0.1,0,0.3,0,0.4,0c0.4,0.1,0.7,0.2,1.1,0.3c0.4,0.1,0.4,0.2,0.4,0.5c0,0.4,0,0.8,0,1.2c0,0.7,0.4,1.1,1,1.1
		c0.4,0,0.7,0,1.1,0c0.5,0,0.9-0.3,1.1-0.9c0,0,0,0,0,0c0.1-0.7,0.1-0.7,0.8-0.7c6.5,0,13,0,19.5,0c0.2,0,0.3,0,0.5,0
		C54.5,43.9,54.6,43.9,54.5,44.1z"/>
	<path fill="#35337E" d="M37.3,23.4c0.1-0.2,0.3-0.2,0.4-0.2c6,0,12,0,17.9,0c0.1,0,0.2,0,0.3,0.1c0.8,2.1,1.3,4.2,1.5,6.4
		c-0.2,0.1-0.4,0.1-0.5,0.1c-1.7,0-3.4,0-5.1,0c-6.8,0-13.6,0-20.4,0c-0.3,0-0.5,0-0.8,0.1c-0.1,0.1-0.2,0-0.3,0
		c-0.5-0.2-0.9-0.4-1.3-0.7c-0.7-0.6-0.8-1.6-0.6-2.3c0-0.1,0.1-0.2,0.3-0.3c0.1,0,0.2,0,0.4,0c2.2,0,4.4,0,6.7,0
		c0.2,0,0.3,0.1,0.4,0.2c0.2,0.2,0.4,0.5,0.5,0.8c0.2,0.4,0.5,0.5,0.9,0.5c0.4,0,0.8,0,1.2,0c0.6,0,0.9-0.3,0.9-0.9
		c0-0.9-0.4-1.6-0.9-2.3c-0.3-0.5-0.7-0.8-1.2-1.2C37.4,23.6,37.3,23.5,37.3,23.4z"/>
	<path fill="#352E7E" d="M7.3,37.6c-0.2-0.9-0.4-1.8-0.5-2.8c0-0.4-0.1-0.8-0.1-1.2c0-0.2-0.1-0.5,0-0.7c0.2-0.1,0.3-0.1,0.5-0.1
		c5.7,0,11.4,0,17.1,0c1.3,0,2.7,0,4,0c0.2,0,0.3,0,0.5,0c0.1-0.1,0.2,0,0.3,0c1.7,0.5,3.5,0.9,5.2,1.5c0.7,0.2,1.3,0.5,1.9,1.1
		c0.7,0.7,0.8,1.8,0.2,2.6c-0.4,0.5-0.9,0.9-1.5,1.2c-1.1,0.5-2.2,0.6-3.4,0.5c-1-0.1-1.9-0.3-2.8-1c-0.6-0.4-1.1-0.9-1.4-1.6
		c-0.2-0.6-0.7-0.8-1.3-0.8c-0.3,0-0.6,0-0.9,0c-0.6,0-0.9,0.3-0.9,0.9c0,0.2,0,0.3-0.2,0.4c-3.8,0-7.7,0-11.5,0c-1.6,0-3.2,0-4.8,0
		C7.7,37.7,7.5,37.7,7.3,37.6z"/>
	<path fill="#35257E" d="M11.9,47.4c0-0.1,0.1-0.1,0.2-0.1c0.1,0,0.2,0,0.3,0c13.2,0,26.3,0,39.5,0c0.2,0,0.4,0,0.5,0.1
		c0,0.1-0.1,0.2-0.1,0.3c-0.8,1-1.7,2-2.6,2.9c0,0-0.1,0-0.1,0c-11.4,0-22.8,0-34.2,0c-0.3,0-0.5,0-0.8,0
		C13.6,49.6,12.7,48.6,11.9,47.4z"/>
	<path fill="#35337E" d="M8.3,23.3c6,0,12,0,18,0c0.2,0,0.4,0,0.5,0.1c0,0.3-0.3,0.4-0.4,0.6c-1.4,1.6-1.7,3.4-1.1,5.4
		c0,0.1,0.2,0.3-0.1,0.4c-0.2,0.1-0.4,0-0.5,0c-5.8,0-11.5,0-17.3,0c-0.2,0-0.4,0.1-0.6-0.1c0.1-1.5,0.4-2.9,0.8-4.3
		C7.8,24.7,8,24,8.3,23.3z"/>
	<path fill="#352A7E" d="M54.5,44.1c0-0.2-0.1-0.1-0.3-0.1c-0.2,0-0.4,0-0.7,0c-6.4,0-12.8,0-19.3,0c-0.5,0-0.5,0-0.6,0.5
		c0,0.1,0,0.1-0.1,0.2c-0.1-0.1-0.1-0.2-0.1-0.3c0-0.4,0-0.8,0-1.1c0-0.4,0.1-0.4,0.4-0.5c1.2-0.2,2.4-0.5,3.4-1.2
		c1.2-0.8,2-1.8,2.4-3.2c0-0.1,0.1-0.3,0.2-0.4c0.2-0.2,0.4-0.1,0.6-0.1c1.9,0,3.8,0,5.7,0c3.3,0,6.6,0,9.9,0c0.2,0,0.4-0.1,0.6,0.1
		c-0.5,2-1.1,4-2.1,5.8C54.7,43.8,54.6,43.9,54.5,44.1z"/>
	<path fill="#35247F" d="M14.7,50.5c0.1-0.1,0.3-0.1,0.4-0.1c8.7,0,17.3,0,26,0c2.7,0,5.4,0,8.1,0c0.2,0,0.4,0,0.5,0.1
		c-0.8,0.8-1.7,1.5-2.6,2.1c-0.4,0.3-0.9,0.6-1.4,0.9c-0.3,0-0.6,0-0.9,0c-8.4,0-16.9,0-25.3,0c-0.3,0-0.6,0-0.9,0.1
		C17.2,52.7,15.8,51.7,14.7,50.5z"/>
	<path fill="#352E7F" d="M56.9,37.9c-5.4,0-10.9,0-16.3,0c-0.2,0-0.3-0.1-0.4,0.1c-0.1-0.2,0-0.4,0-0.6c0.1-1.1,0-2.1-0.5-3
		c-0.2-0.3-0.4-0.7-0.7-1c-0.1-0.1-0.3-0.2-0.2-0.4c0.1-0.1,0.2-0.1,0.3-0.1c0.1,0,0.2,0,0.4,0c5.8,0,11.6,0,17.4,0
		c0.2,0,0.4,0,0.6,0.1c0.1,0.2,0,0.5,0,0.7C57.4,35.1,57.2,36.5,56.9,37.9z"/>
	<path fill="#352C7E" d="M7.3,37.6c5.5,0,11,0,16.5,0c0.2,0,0.3,0,0.5,0.1c0.1,0.1,0.1,0.2,0.1,0.3c0.3,1.2,1.1,2.2,2.1,3
		c0.6,0.5,1.3,0.8,1.9,1.2c0.1,0,0.3,0,0.3,0.2c-0.1,0.1-0.3,0.1-0.4,0.1c-6.3,0-12.6,0-18.9,0c-0.1,0-0.3-0.1-0.4,0.1
		c-0.6-1.3-1-2.6-1.4-3.9C7.5,38.2,7.4,37.9,7.3,37.6z"/>
	<path fill="#35227E" d="M18.6,53.6c0-0.1,0-0.1,0.1-0.1c0.2,0,0.4-0.1,0.6-0.1c8.6,0,17.2,0,25.7,0c0.2,0,0.5,0,0.7,0.1
		c-0.7,0.5-1.5,0.9-2.2,1.3c-2.7,1.3-5.6,2.2-8.6,2.5c-5.3,0.5-10.3-0.5-15-3C19.4,54.1,19,53.9,18.6,53.6z"/>
	<path fill="#35307F" d="M57.5,32.9c-6.1,0-12.2,0-18.3,0c-0.1,0-0.3-0.1-0.4,0.1c-0.1,0-0.2-0.1-0.3-0.1c-1.1-0.9-2.4-1.3-3.7-1.7
		c-1.3-0.4-2.6-0.7-3.9-1.1c-0.1,0-0.3-0.1-0.4-0.2c0-0.2,0.2-0.2,0.3-0.2c0.1,0,0.2,0,0.3,0c8.8,0,17.6,0,26.4,0c0,0,0,0,0,0.1
		c0.1,0.1,0,0.3,0.1,0.4c0,0.2,0,0.3,0,0.5c0.1,0.2,0,0.5,0.1,0.7C57.5,31.8,57.5,32.4,57.5,32.9C57.5,32.9,57.5,32.9,57.5,32.9z"/>
	<path fill="#35307F" d="M6.9,29.7c6.2,0,12.3,0,18.5,0c0.1,0,0.2,0.1,0.2,0.2c0.7,1.3,1.8,2.1,3.1,2.7c0.1,0.1,0.3,0.1,0.3,0.2
		C28.9,33,28.8,33,28.7,33c-1.3,0-2.5,0-3.8,0c-0.2,0-0.5,0-0.7,0c-5.8,0-11.7,0-17.5,0c0,0,0,0-0.1,0c0-0.6,0-1.2,0-1.7
		c0.1-0.2,0-0.5,0-0.7c0-0.2,0-0.3,0-0.5C6.9,30,6.8,29.9,6.9,29.7L6.9,29.7z"/>
	<path fill="#35337E" d="M57.5,31.3c-0.1-0.2,0-0.5-0.1-0.7C57.5,30.8,57.5,31.1,57.5,31.3z"/>
	<path fill="#35337E" d="M57.5,32.9C57.5,32.9,57.5,32.9,57.5,32.9c0.1,0.2,0.1,0.4,0,0.7C57.5,33.4,57.5,33.2,57.5,32.9z"/>
	<path fill="#35337E" d="M6.8,30.6c0,0.2,0.1,0.5,0,0.7C6.7,31,6.7,30.8,6.8,30.6z"/>
	<path fill="#35337E" d="M6.7,33C6.8,33,6.8,33,6.7,33c0.1,0.2,0.1,0.5,0,0.7C6.7,33.5,6.7,33.2,6.7,33z"/>
	<path fill="#35337E" d="M6.9,29.7c0,0.1,0,0.3,0,0.4C6.8,30,6.8,29.9,6.9,29.7z"/>
	<path fill="#35337E" d="M57.5,30.1c-0.1-0.1,0-0.3-0.1-0.4C57.5,29.9,57.5,30,57.5,30.1z"/>
	<path fill="#FEFEFE" d="M29,32.9c-0.7-0.3-1.4-0.6-2-1.1c-0.7-0.5-1.3-1.3-1.7-2.1c-0.2-0.7-0.4-1.5-0.4-2.2c0-1.5,0.5-2.8,1.6-3.8
		c0.1-0.1,0.2-0.2,0.3-0.3c1-0.8,2.1-1.3,3.4-1.5c0.2,0,0.2-0.1,0.2-0.3c0-0.4,0-0.9,0-1.3c0-0.7,0.5-1.1,1.1-1.1c0.4,0,0.8,0,1.2,0
		c0.6,0,1,0.4,1.1,1c0,0.5,0,1,0,1.5c0,0.1,0,0.2,0.2,0.3c1.2,0.2,2.3,0.7,3.3,1.5c0.7,0.6,1.4,1.3,1.8,2.1c0.3,0.5,0.5,1,0.5,1.6
		c0,0.6-0.3,1-0.9,1c-0.4,0-0.8,0-1.2,0c-0.5,0-0.8-0.2-1-0.6c-0.2-0.4-0.4-0.7-0.7-1c-0.3-0.2-0.5-0.4-0.7-0.6
		c-0.7-0.6-1.6-0.9-2.6-0.9c-0.9,0-1.8,0-2.7,0.5c-0.4,0.2-0.8,0.5-1,0.9c0,0.1-0.1,0.1-0.2,0.2c-0.6,1.5,0.1,2.4,1.4,3.1
		c0.2,0.1,0.3,0.2,0.5,0.2c1,0.4,2,0.7,3,0.9c1.2,0.3,2.5,0.7,3.6,1.2c0.6,0.3,1.1,0.6,1.6,1c0.7,0.7,1.2,1.6,1.4,2.6
		c0.1,0.8,0.1,1.6,0,2.4c-0.7,2.7-2.7,4-5.2,4.6c-0.3,0.1-0.5,0.1-0.8,0.1c-0.2,0-0.3,0.1-0.3,0.3c0,0.5,0,1,0,1.5
		c-0.2,0.6-0.6,0.9-1.2,0.8c-0.3,0-0.7,0-1,0c-0.7,0-1.1-0.5-1.1-1.1c0-0.5,0-0.9,0-1.4c0-0.1,0-0.2-0.2-0.2c-0.5-0.1-1-0.3-1.6-0.4
		c-1-0.4-1.9-0.9-2.7-1.7c-0.9-0.8-1.5-1.7-1.7-2.9c0-0.2,0-0.3,0-0.5c0-0.5,0.4-0.9,1-0.9c0.5,0,1,0,1.5,0c0.4,0.1,0.6,0.3,0.8,0.6
		c1.1,2.2,2.9,2.8,5.2,2.7c1.1-0.1,2.2-0.3,3.1-1c0.7-0.5,1.1-1.2,1-2.1c-0.1-0.6-0.4-1-0.9-1.3c-0.7-0.5-1.5-0.8-2.3-1
		C32.1,33.8,30.6,33.3,29,32.9z"/>
	<path fill="#35347E" d="M28.5,26.6c0.2-0.5,0.6-0.8,1-1c1.9-1.1,4.7-0.8,6.2,0.9c0,0,0,0.1,0,0.1c-0.1,0.1-0.2,0.1-0.3,0.1
		C33.1,26.6,30.8,26.6,28.5,26.6z"/>
</g>
</svg>
