<?xml version="1.0" encoding="utf-8"?>
<!-- Generator: Adobe Illustrator 19.0.0, SVG Export Plug-In . SVG Version: 6.00 Build 0)  -->
<svg version="1.1" id="Layer_1" xmlns="http://www.w3.org/2000/svg" xmlns:xlink="http://www.w3.org/1999/xlink" x="0px" y="0px"
	 viewBox="0 0 64 64" enable-background="new 0 0 64 64" xml:space="preserve">
<g>
	<path fill="#FEFEFE" d="M32,64.1c-10.6,0-21.1,0-31.7,0c-0.2,0-0.3-0.1-0.3-0.3c0-21.1,0-42.3,0-63.4c0-0.2,0.1-0.3,0.3-0.3
		c21.1,0,42.3,0,63.4,0c0.2,0,0.3,0.1,0.3,0.3c0,21.1,0,42.3,0,63.4c0,0.2-0.1,0.3-0.3,0.3C53.2,64.1,42.6,64.1,32,64.1z"/>
	<path fill="#E7C042" d="M63.9,32.1c0,17.5-14.3,32-32.1,31.8C14.5,63.7,0.1,49.5,0.3,31.5C0.6,14.3,14.8,0,32.8,0.3
		C50,0.7,63.9,14.7,63.9,32.1z"/>
	<path fill="#E9E9E9" d="M59.9,32.1c0,15.3-12.4,27.9-28,27.7C16.7,59.7,4.2,47.4,4.4,31.7C4.6,16.6,16.9,4.1,32.7,4.4
		C47.6,4.6,59.8,16.8,59.9,32.1z"/>
	<path fill="#35287E" d="M56,40.9c-0.6,1.8-1.5,3.4-2.5,5c-0.6,0.9-1.3,1.8-2,2.7c0,0-0.1,0.1-0.1,0.1c-0.3,0-0.6,0-1,0
		c-12.1,0-24.2,0-36.3,0c-0.4,0-0.9,0-1.3,0c-1.2-1.3-2.1-2.7-3-4.2c-0.6-1.1-1.2-2.2-1.6-3.4c0,0,0-0.1,0-0.2
		c0-0.2,0.1-0.1,0.2-0.2c0.2,0,0.3,0,0.5,0c15.5,0,31,0,46.5,0C55.5,40.8,55.8,40.8,56,40.9z"/>
	<path fill="#35397E" d="M49.9,13.7c0.9,0.9,1.8,1.8,2.5,2.9c1.1,1.5,2.1,3.1,2.9,4.8c0,0.1,0,0.1,0.1,0.2c-0.1,0.1-0.2,0.1-0.3,0.1
		c-0.1,0-0.2,0-0.4,0c-15.1,0-30.2,0-45.2,0c-0.2,0-0.5,0.1-0.7-0.1c0.5-1.2,1.1-2.3,1.8-3.4c1-1.6,2.2-3.1,3.7-4.5
		c0.2,0,0.5,0,0.7,0c11.4,0,22.9,0,34.3,0C49.5,13.7,49.7,13.7,49.9,13.7z"/>
	<path fill="#352C7F" d="M56,40.9c-15.8,0-31.6,0-47.4,0c-0.1,0-0.3-0.1-0.4,0.1c-0.5-1.2-0.8-2.5-1.1-3.8c-0.1-0.4-0.2-0.8-0.2-1.3
		c0.1-0.1,0.3-0.1,0.4-0.1c2.4,0,4.7,0,7.1,0c0.2,0,0.4,0,0.5,0.1c0.2,0.2,0,0.3-0.1,0.4c-0.4,0.5-0.8,1-1.1,1.6
		c-0.2,0.4,0,0.8,0.4,0.8c0,0,0,0,0.1,0c1.1,0.1,1.3,0,1.9-0.9c1-1.3,1.9-2.7,2.9-4c0.2-0.3,0.3-0.3,0.6,0c1,1.4,2.1,2.8,3.1,4.2
		c0.5,0.7,1.2,1,2.1,0.7c0.4-0.1,0.5-0.5,0.3-0.8c-0.4-0.5-0.7-1-1.1-1.5c-0.4-0.5-0.8-1.1-1.2-1.6c-0.1-0.1-0.2-0.3,0-0.4
		c0.1-0.1,0.3-0.1,0.5-0.1c1.1,0,2.3,0,3.4,0c0.2,0,0.3,0,0.5,0.1c0.1,0.1,0,0.3,0,0.4c-0.4,1-0.7,2-1.1,3c0,0.1-0.1,0.2-0.1,0.3
		c-0.1,0.4,0.1,0.6,0.5,0.7c0.2,0,0.5,0,0.7,0c0.4,0,0.7-0.2,0.8-0.6c0.2-0.6,0.5-1.3,0.8-1.9c0.2-0.5,0.3-0.6,0.8-0.6
		c1.8,0,3.6,0,5.4,0c0.5,0,0.6,0,0.7,0.5c0.2,0.6,0.5,1.2,0.7,1.8c0.2,0.6,0.4,0.7,1,0.7c0.2,0,0.3,0,0.5,0c0.5,0,0.7-0.3,0.5-0.8
		c-0.3-0.7-0.6-1.5-0.9-2.2c-0.3-0.8-0.6-1.6-0.9-2.4c-0.1-0.2-0.2-0.3,0-0.5c0.2-0.1,0.3,0,0.5,0c0.8,0,1.6,0,2.4,0
		c0.2,0,0.3,0,0.5,0.1c0.2,0.1,0.1,0.3,0.1,0.5c0,0.2,0,0.4,0,0.6c0.1,0.6,0.2,1.3,0.4,1.9c0.6,1.8,2.1,2.9,4,3.1
		c0.4,0,0.8,0.1,1.3,0.1c0.2,0,0.3,0,0.5,0c1.1-0.1,2.2-0.5,3-1.3c0.1-0.1,0.2-0.1,0.3-0.1c2.4,0,4.7,0,7.1,0c0.2,0,0.4-0.1,0.5,0.2
		c-0.2,0.9-0.4,1.7-0.7,2.6C56.2,40.4,56.1,40.7,56,40.9z"/>
	<path fill="#353D7E" d="M49.9,13.7c0,0.1-0.1,0.1-0.2,0.1c-0.1,0-0.1,0-0.2,0c-11.7,0-23.3,0-35,0c-0.1,0-0.3,0-0.4-0.2
		c2.3-2.3,5-4.1,8-5.3c2.9-1.2,5.9-1.9,9-2c7.1-0.2,13.2,2.2,18.4,6.9C49.7,13.4,49.8,13.5,49.9,13.7z"/>
	<path fill="#35357F" d="M8.7,21.5c15.6,0,31.1,0,46.7,0c0.5,1,0.8,2,1.2,3.1c0,0.1,0,0.1,0,0.2c-0.2,0.2-0.4,0.1-0.6,0.1
		c-4.3,0-8.6,0-12.8,0c-11.7,0-23.3,0-35,0c-0.2,0-0.5,0.1-0.7-0.1C7.8,23.6,8.2,22.5,8.7,21.5z"/>
	<path fill="#35247F" d="M12.8,48.8c0-0.1,0.1-0.1,0.2-0.1c0.1,0,0.2,0,0.2,0c12.5,0,25.1,0,37.6,0c0.2,0,0.3-0.1,0.5,0.1
		c-1,1.1-2,2.2-3.2,3.1c-0.1,0.1-0.2,0.2-0.3,0.2c-10.3,0-20.5,0-30.8,0c-0.3,0-0.6,0-0.8,0c-1.1-0.9-2.2-1.8-3.1-2.9
		C13,49.1,12.9,48.9,12.8,48.8z"/>
	<path fill="#35347E" d="M7.5,24.7c8.4,0,16.9,0,25.3,0c7.9,0,15.9,0,23.8,0c0.2,0.5,0.3,1.1,0.5,1.7c-0.1,0.1-0.2,0-0.3,0
		c-1.9,0-3.8,0-5.6,0c-0.1,0-0.3,0-0.4,0c-0.2-0.1-0.1-0.3-0.2-0.5c0-0.6-0.2-0.8-0.9-0.8c-0.2,0-0.3,0-0.5,0
		c-0.4,0-0.5,0.1-0.7,0.5c-0.1,0.7,0,1.3,0,2c0,0.2,0,0.3-0.1,0.5c-0.1,0.1-0.3,0.1-0.4,0.1c-1.9,0-3.7,0-5.6,0
		c-0.1,0-0.2,0-0.4-0.1C41.9,28,42,27.8,42,27.6c0-0.6,0-1.2,0-1.8c0-0.6-0.2-0.8-0.8-0.8c-0.2,0-0.4,0-0.6,0
		c-0.3,0-0.5,0.2-0.6,0.5c0,0.1,0,0.3,0,0.4c0.1,2.5,0,5.1,0.1,7.6c0,0.1,0,0.3-0.1,0.4c-0.1-0.4,0-0.8-0.1-1.1
		c-0.1-0.2-0.1-0.4-0.1-0.5c0-1.8,0-3.5,0-5.3c0-0.5,0-0.5-0.5-0.5c-1.5,0-3,0-4.6,0c-0.2,0-0.4,0-0.7,0.1c-0.2,0-0.2-0.1-0.3-0.3
		c-0.1-0.2-0.2-0.4-0.3-0.6c-0.2-0.4-0.5-0.6-0.9-0.6c-0.3,0-0.7,0-1,0c-0.5,0-0.9,0.2-1.1,0.7c-0.3,0.7-0.5,1.3-0.8,2
		c-0.1,0.1-0.1,0.4-0.3,0.3C29.2,28,29,28,28.8,28c-1.6,0-3.2,0-4.7,0c-0.2,0-0.3,0-0.5,0c-0.3-0.1-0.1-0.3,0-0.4
		c0.3-0.5,0.7-1,1-1.4c0.1-0.1,0.2-0.2,0.2-0.4c0.1-0.4-0.1-0.6-0.5-0.6c-0.3,0-0.6,0-0.9,0c-0.3,0-0.5,0.2-0.7,0.4
		c-0.8,1.1-1.6,2.3-2.4,3.4c-0.2,0.3-0.4,0.5-0.6,0.8c-0.3,0.4-0.4,0.4-0.6,0c-0.5-0.7-1-1.3-1.5-2c-0.5-0.7-1-1.4-1.5-2.1
		c-0.3-0.4-0.6-0.6-1.2-0.6c-0.2,0-0.4,0-0.6,0c-0.5,0-0.7,0.4-0.4,0.8c0.3,0.4,0.6,0.8,0.8,1.2c0.2,0.2,0.3,0.4,0.4,0.6
		c0.1,0.1,0.1,0.2-0.1,0.3c-0.2,0-0.3,0-0.5,0c-2.4,0-4.8,0-7.2,0c-0.2,0-0.4,0-0.6-0.1C6.9,26.8,7.2,25.8,7.5,24.7z"/>
	<path fill="#35227E" d="M45.6,53.6c-0.6,0.6-1.4,0.9-2.1,1.3c-2.5,1.2-5.1,2.1-7.8,2.4c-5.1,0.7-10-0.1-14.6-2.3
		c-0.9-0.4-1.7-0.8-2.5-1.4c0-0.2,0.1-0.2,0.3-0.2c0.1,0,0.3,0,0.4,0c8.6,0,17.2,0,25.8,0C45.2,53.4,45.4,53.3,45.6,53.6z"/>
	<path fill="#35307F" d="M6.8,27.9c2.8,0,5.6,0,8.4,0c0.1,0,0.2,0.1,0.3,0.2c0.8,1.1,1.6,2.2,2.4,3.3c0.2,0.2,0.2,0.4,0,0.6
		c-0.1,0.2-0.2,0.3-0.4,0.5c-0.1,0.1-0.2,0.2-0.4,0.2c-0.1,0-0.3,0-0.4,0c-3.2,0-6.4,0-9.7,0c-0.2,0-0.4,0-0.6-0.1
		c-0.1-1.6,0.1-3.1,0.3-4.6C6.8,28,6.8,28,6.8,27.9z"/>
	<path fill="#35237F" d="M45.6,53.6c-0.1-0.1-0.3-0.1-0.4-0.1c-8.8,0-17.6,0-26.3,0c-0.1,0-0.3,0-0.4,0.1c-0.8-0.5-1.5-1-2.2-1.6
		c0.1-0.2,0.3-0.1,0.4-0.1c1.8,0,3.7,0,5.5,0c7.1,0,14.1,0,21.2,0c1.4,0,2.7,0,4.1,0c0.2,0,0.3,0,0.5,0.1c-0.7,0.5-1.4,1-2.1,1.5
		C45.7,53.6,45.7,53.6,45.6,53.6z"/>
	<path fill="#35337F" d="M50.6,26.3c2,0,4,0,6,0c0.1,0,0.3,0,0.4,0.1c0.5,2.3,0.7,4.6,0.6,6.9c0,0,0,0.1,0,0.1
		c-0.1-0.1-0.1-0.3-0.1-0.4c0-0.2-0.1-0.3-0.3-0.3c-0.1,0-0.2,0-0.3,0c-1.9,0-3.8,0-5.7,0c-0.2,0-0.4,0-0.5-0.1
		c-0.1-0.1-0.1-0.3-0.1-0.4c0-1.8,0-3.6,0-5.4C50.5,26.6,50.5,26.5,50.6,26.3z"/>
	<path fill="#352D7E" d="M50.6,32.6c2.2,0,4.4,0,6.5,0c0.5,0,0.5,0,0.5,0.4c0,0.1,0,0.2,0,0.4c0,1.4-0.2,2.8-0.6,4.2
		c-0.1-0.1-0.2-0.1-0.4-0.1c-2.3,0-4.6,0-6.9,0c-0.2,0-0.3,0-0.5-0.1c0-0.1,0.1-0.2,0.1-0.3c0.6-0.9,0.9-1.8,1-2.8
		c0-0.4,0.1-0.9,0.1-1.3C50.5,32.8,50.5,32.7,50.6,32.6z"/>
	<path fill="#352F7F" d="M6.5,32.7c3.6,0,7.2,0,10.8,0c0,0.2-0.1,0.3-0.2,0.4c-0.7,0.9-1.3,1.8-2,2.7c-0.1,0.1-0.1,0.2-0.3,0.2
		c-0.1-0.1-0.3-0.1-0.4-0.1c-2.5,0-5.1,0-7.6,0c-0.1-0.3-0.1-0.6-0.1-0.9c-0.1-0.1,0-0.2-0.1-0.3c0-0.1,0-0.2,0-0.3
		c-0.1-0.1,0-0.2,0-0.3c0-0.2,0-0.3,0-0.5C6.5,33.3,6.5,33,6.5,32.7C6.5,32.8,6.5,32.8,6.5,32.7z"/>
	<path fill="#35307F" d="M6.5,32.8c0.1,0.2,0,0.5,0,0.7C6.5,33.3,6.5,33,6.5,32.8z"/>
	<path fill="#35307F" d="M6.6,34c0.1,0.1,0,0.2,0,0.3C6.5,34.2,6.5,34.1,6.6,34z"/>
	<path fill="#35307F" d="M6.6,34.7c0.1,0.1,0,0.2,0.1,0.3C6.6,34.9,6.6,34.8,6.6,34.7z"/>
	<path fill="#FEFEFE" d="M29.5,28.1c0.3-0.7,0.6-1.4,0.9-2.1c0.3-0.8,0.5-0.9,1.3-0.9c0.3,0,0.6,0,0.9,0c0.5,0,0.8,0.2,1,0.7
		c0.1,0.3,0.2,0.6,0.4,0.9c0.1,0.1,0.1,0.2,0.2,0.3c0.7,1.9,1.4,3.7,2.2,5.6c0.1,0.1,0.1,0.3,0.1,0.4c0.3,1,0.8,1.9,1.1,2.9
		c0.3,0.7,0.5,1.4,0.8,2c0.2,0.6,0,0.9-0.6,0.9c-1.2,0-1.3,0-1.7-1.2c-0.2-0.5-0.4-1.1-0.6-1.6c-0.1-0.2-0.2-0.3-0.4-0.3
		c-2,0-3.9,0-5.9,0c-0.2,0-0.3,0.1-0.4,0.3c-0.3,0.7-0.5,1.4-0.8,2.1c-0.2,0.5-0.5,0.7-1,0.7c-0.2,0-0.4,0-0.6,0
		c-0.5,0-0.8-0.4-0.6-0.8c0.3-0.9,0.7-1.8,1-2.7c0.1-0.3,0.2-0.5,0.3-0.8c0-0.5,0.3-1,0.5-1.4c0.6-1.5,1.2-3,1.7-4.6
		C29.3,28.3,29.3,28.1,29.5,28.1z"/>
	<path fill="#FEFEFE" d="M50.6,32.6c0,0.7,0,1.4-0.1,2.1c-0.2,1-0.5,2-1.2,2.8c-0.8,0.9-1.9,1.3-3.1,1.5c-0.2,0.1-0.4,0-0.5,0.1
		c-0.8,0-1.6,0-2.4-0.3c-1.8-0.6-2.7-1.9-3.1-3.7C40,34.7,40,34.4,39.9,34c0-2.8,0-5.6,0-8.4c0-0.3,0.3-0.6,0.5-0.6c0.3,0,0.7,0,1,0
		c0.4,0,0.6,0.3,0.6,0.7c0,0.8,0,1.6,0,2.3c0.1,0.1,0.1,0.3,0.1,0.5c0,1.7,0,3.4,0,5.1c0,0.6,0.1,1.2,0.3,1.7
		c0.3,0.7,0.8,1.1,1.4,1.4c0.6,0.2,1.3,0.3,1.9,0.2c1.4-0.2,2.2-1.1,2.4-2.6c0-0.1,0-0.2,0-0.4c0-0.1,0-0.3,0-0.4c0-1.2,0-2.3,0-3.5
		c0-1.5,0.1-3,0.1-4.5c0.2-0.5,0.3-0.5,0.7-0.5c0.2,0,0.5,0,0.7,0c0.4,0,0.7,0.3,0.7,0.7c0,0.2,0,0.4,0,0.6
		C50.6,28.4,50.6,30.5,50.6,32.6z"/>
	<path fill="#FEFEFE" d="M14.9,36c0.8-1.1,1.6-2.2,2.4-3.3c0.2-0.3,0.4-0.6,0.6-0.8c0.1-0.1,0.1-0.2,0-0.3c-0.9-1.2-1.7-2.4-2.6-3.6
		c0,0-0.1-0.1-0.1-0.1c-0.4-0.6-0.9-1.2-1.3-1.8c-0.1-0.1-0.1-0.2-0.2-0.2c-0.2-0.3,0-0.6,0.3-0.8c0.6-0.3,1.8,0,2.1,0.5
		c1,1.4,2,2.8,3,4.2c0.1,0.1,0.1,0.2,0.2,0.3c0.1-0.1,0.2-0.2,0.2-0.2c1-1.3,1.9-2.7,2.9-4c0.4-0.5,0.8-0.8,1.4-0.7
		c0.2,0,0.3,0,0.5,0c0.2,0,0.4,0.1,0.5,0.3c0.1,0.2,0.1,0.4-0.1,0.7c-0.4,0.6-0.9,1.2-1.3,1.8c0,0,0,0.1-0.1,0.1
		c0,0.1-0.1,0.2-0.1,0.3c-0.8,1.1-1.6,2.2-2.4,3.3c-0.2,0.2-0.1,0.4,0,0.6c0.5,0.7,1,1.3,1.5,2c0.1,0.1,0.1,0.2,0.2,0.3
		c0.3,0.6,0.8,1.1,1.1,1.6c0.4,0.6,0.9,1.2,1.3,1.8c0.2,0.2,0.2,0.4,0.1,0.7c-0.1,0.2-0.3,0.3-0.5,0.3c0,0,0,0,0,0
		c-1.5,0-1.3,0.1-2.2-1.1c-1-1.4-2-2.8-3.1-4.2c-0.2,0.3-0.4,0.5-0.6,0.8c-0.9,1.3-1.9,2.6-2.8,3.9c-0.3,0.4-0.7,0.7-1.2,0.6
		c-0.2,0-0.4,0-0.6,0c-0.2,0-0.4-0.1-0.5-0.3c-0.1-0.2-0.1-0.4,0.1-0.6C14,37.2,14.4,36.6,14.9,36z"/>
	<path fill="#35317F" d="M22.6,34.4c-0.6-0.8-1.2-1.7-1.8-2.5c-0.1-0.1-0.1-0.2,0-0.3c0.9-1.3,1.8-2.5,2.7-3.8c1.9,0,3.7,0,5.6,0
		c0.2,0,0.4,0,0.4,0.2c-0.7,1.9-1.5,3.8-2.2,5.7c-0.1,0.2-0.2,0.4-0.3,0.6c-0.1-0.1-0.2-0.1-0.3-0.1c-1.3,0-2.5,0-3.8,0
		C22.8,34.3,22.7,34.3,22.6,34.4z"/>
	<path fill="#35327F" d="M36.4,32.9c-0.7-1.7-1.3-3.4-2-5.1c-0.2-0.4-0.4-0.8-0.5-1.3c0.1-0.1,0.3-0.1,0.4-0.1c1.7,0,3.5,0,5.2,0
		c0.2,0,0.3,0,0.3,0.3c0,2.1,0,4.1,0,6.2C38.7,32.9,37.5,32.9,36.4,32.9z"/>
	<path fill="#352D7E" d="M45.6,39c0.2-0.1,0.4-0.1,0.5-0.1C46,39.1,45.8,39,45.6,39z"/>
	<path fill="#35307E" d="M48.4,34c0,1.7-1.1,2.9-2.8,3c-1,0-2-0.1-2.7-0.9c-0.6-0.6-0.8-1.4-0.8-2.2c0-1.9,0-3.9,0-5.8
		c2.1,0,4.2,0,6.3,0c0.1,0.1,0,0.1,0,0.2c0,1.8,0,3.7,0,5.5C48.4,33.9,48.4,33.9,48.4,34z"/>
	<path fill="#35357F" d="M48.4,34c0-2,0-4,0-5.9c0-0.7,0-1.5,0-2.2c0-0.1,0-0.2,0-0.4c0,2.7,0,5.4,0,8C48.5,33.7,48.4,33.9,48.4,34z
		"/>
	<path fill="#352F7F" d="M32,27.5c0.8,2.1,1.6,4.2,2.4,6.2c-1.6,0-3.1,0-4.6,0c-0.1,0-0.2,0-0.1-0.2C30.4,31.5,31.2,29.5,32,27.5z"
		/>
</g>
</svg>
